<svg xmlns="http://www.w3.org/2000/svg" width="800" height="600" viewBox="0 0 800 600">
  <rect x="0" y="0" width="800" height="600" fill="#5d2292" rx="16"/>
  <circle cx="800" cy="200" r="13" fill="#ffec80" stroke="#333" stroke-width="1"/>
  <circle cx="800" cy="200" r="10" fill="#ffc100" stroke="#333" stroke-width="2"/>
  <circle cx="900" cy="200" r="13" fill="#ffec80" stroke="#333" stroke-width="1"/>
  <circle cx="900" cy="200" r="10" fill="#ffc100" stroke="#333" stroke-width="2"/>
  <circle cx="780" cy="400" r="12" fill="#ffec80" stroke="#333" stroke-width="1"/>
  <circle cx="780" cy="400" r="9" fill="#ffc100" stroke="#333" stroke-width="2"/>
  <circle cx="820" cy="400" r="12" fill="#ffec80" stroke="#333" stroke-width="1"/>
  <circle cx="820" cy="400" r="9" fill="#ffc100" stroke="#333" stroke-width="2"/>
  <circle cx="370" cy="700" r="11" fill="#ffec80" stroke="#333" stroke-width="1"/>
  <circle cx="370" cy="700" r="8" fill="#ffc100" stroke="#333" stroke-width="2"/>
  <circle cx="430" cy="700" r="11" fill="#ffec80" stroke="#333" stroke-width="1"/>
  <circle cx="430" cy="700" r="8" fill="#ffc100" stroke="#333" stroke-width="2"/>
  <circle cx="770" cy="700" r="11" fill="#ffec80" stroke="#333" stroke-width="1"/>
  <circle cx="770" cy="700" r="8" fill="#ffc100" stroke="#333" stroke-width="2"/>
  <circle cx="830" cy="700" r="11" fill="#ffec80" stroke="#333" stroke-width="1"/>
  <circle cx="830" cy="700" r="8" fill="#ffc100" stroke="#333" stroke-width="2"/>
  <circle cx="1170" cy="700" r="11" fill="#ffec80" stroke="#333" stroke-width="1"/>
  <circle cx="1170" cy="700" r="8" fill="#ffc100" stroke="#333" stroke-width="2"/>
  <circle cx="1230" cy="700" r="11" fill="#ffec80" stroke="#333" stroke-width="1"/>
  <circle cx="1230" cy="700" r="8" fill="#ffc100" stroke="#333" stroke-width="2"/>
  <circle cx="7" cy="994" r="11" fill="#ffec80" stroke="#333" stroke-width="1"/>
  <circle cx="7" cy="994" r="8" fill="#ffc100" stroke="#333" stroke-width="2"/>
  <circle cx="-32" cy="994" r="11" fill="#ffec80" stroke="#333" stroke-width="1"/>
  <circle cx="-32" cy="994" r="8" fill="#ffc100" stroke="#333" stroke-width="2"/>
  <circle cx="800" cy="980" r="11" fill="#ffec80" stroke="#333" stroke-width="1"/>
  <circle cx="800" cy="980" r="8" fill="#ffc100" stroke="#333" stroke-width="2"/>
  <circle cx="800" cy="1020" r="11" fill="#ffec80" stroke="#333" stroke-width="1"/>
  <circle cx="800" cy="1020" r="8" fill="#ffc100" stroke="#333" stroke-width="2"/>
  <circle cx="1357" cy="429" r="11" fill="#ffec80" stroke="#333" stroke-width="1"/>
  <circle cx="1357" cy="429" r="8" fill="#ffc100" stroke="#333" stroke-width="2"/>
  <circle cx="1397" cy="429" r="11" fill="#ffec80" stroke="#333" stroke-width="1"/>
  <circle cx="1397" cy="429" r="8" fill="#ffc100" stroke="#333" stroke-width="2"/>
  <line x1="400" y1="100" x2="380" y2="200" stroke="#ffc100" stroke-width="4"/>
  <line x1="420" y1="200" x2="170" y2="350" stroke="#ffc100" stroke-width="4"/>
  <line x1="420" y1="200" x2="370" y2="350" stroke="#ffc100" stroke-width="4"/>
  <line x1="420" y1="200" x2="570" y2="350" stroke="#ffc100" stroke-width="4"/>
  <line x1="230" y1="350" x2="214" y2="485" stroke="#ffc100" stroke-width="4"/>
  <line x1="430" y1="350" x2="400" y2="480" stroke="#ffc100" stroke-width="4"/>
  <line x1="630" y1="350" x2="585" y2="485" stroke="#ffc100" stroke-width="4"/>
  <line x1="185" y1="514" x2="500" y2="100" stroke="#ffc100" stroke-width="4"/>
  <line x1="400" y1="520" x2="500" y2="100" stroke="#ffc100" stroke-width="4"/>
  <line x1="614" y1="514" x2="500" y2="100" stroke="#ffc100" stroke-width="4"/>
  <line x1="614" y1="514" x2="500" y2="100" stroke="#ffc100" stroke-width="4"/>
  <text x="360" y="50" fill="#ffffff" font-family="monospace" font-size="18">BT1</text>
  <text x="360" y="150" fill="#ffffff" font-family="monospace" font-size="18">SW1</text>
  <text x="160" y="300" fill="#ffffff" font-family="monospace" font-size="18">R1</text>
  <text x="360" y="300" fill="#ffffff" font-family="monospace" font-size="18">R2</text>
  <text x="560" y="300" fill="#ffffff" font-family="monospace" font-size="18">R3</text>
  <text x="160" y="450" fill="#ffffff" font-family="monospace" font-size="18">D1</text>
  <text x="360" y="450" fill="#ffffff" font-family="monospace" font-size="18">D2</text>
  <text x="560" y="450" fill="#ffffff" font-family="monospace" font-size="18">D3</text>
  <g transform="translate(50,50) scale(1.2)"><ns0:svg xmlns:ns0="http://www.w3.org/2000/svg" width="10" height="10">
  <ns0:line x1="0" y1="0" x2="5" y2="8" stroke="white" />
  <ns0:line x1="5" y1="8" x2="10" y2="0" stroke="white" />
  <ns0:line x1="10" y1="0" x2="0" y2="0" stroke="white" />

  <ns0:path d="M1,1 C2,3 4,3 5,1" stroke="white" fill="none" />

  <ns0:rect x="6" y="1" width="3" height="2" stroke="white" fill="none" />

  <ns0:ellipse cx="7" cy="6" rx="2" ry="1" stroke="white" fill="none" />
</ns0:svg></g>
</svg>