<svg xmlns="http://www.w3.org/2000/svg" width="800" height="600" viewBox="0 0 800 600">
  <rect x="0" y="0" width="800" height="600" fill="#5d2292" rx="16"/>
  <circle cx="800" cy="200" r="13" fill="#ffec80" stroke="#333" stroke-width="1"/>
  <circle cx="800" cy="200" r="10" fill="#ffc100" stroke="#333" stroke-width="2"/>
  <circle cx="900" cy="200" r="13" fill="#ffec80" stroke="#333" stroke-width="1"/>
  <circle cx="900" cy="200" r="10" fill="#ffc100" stroke="#333" stroke-width="2"/>
  <circle cx="780" cy="400" r="12" fill="#ffec80" stroke="#333" stroke-width="1"/>
  <circle cx="780" cy="400" r="9" fill="#ffc100" stroke="#333" stroke-width="2"/>
  <circle cx="820" cy="400" r="12" fill="#ffec80" stroke="#333" stroke-width="1"/>
  <circle cx="820" cy="400" r="9" fill="#ffc100" stroke="#333" stroke-width="2"/>
  <circle cx="370" cy="700" r="11" fill="#ffec80" stroke="#333" stroke-width="1"/>
  <circle cx="370" cy="700" r="8" fill="#ffc100" stroke="#333" stroke-width="2"/>
  <circle cx="430" cy="700" r="11" fill="#ffec80" stroke="#333" stroke-width="1"/>
  <circle cx="430" cy="700" r="8" fill="#ffc100" stroke="#333" stroke-width="2"/>
  <circle cx="770" cy="700" r="11" fill="#ffec80" stroke="#333" stroke-width="1"/>
  <circle cx="770" cy="700" r="8" fill="#ffc100" stroke="#333" stroke-width="2"/>
  <circle cx="830" cy="700" r="11" fill="#ffec80" stroke="#333" stroke-width="1"/>
  <circle cx="830" cy="700" r="8" fill="#ffc100" stroke="#333" stroke-width="2"/>
  <circle cx="1170" cy="700" r="11" fill="#ffec80" stroke="#333" stroke-width="1"/>
  <circle cx="1170" cy="700" r="8" fill="#ffc100" stroke="#333" stroke-width="2"/>
  <circle cx="1230" cy="700" r="11" fill="#ffec80" stroke="#333" stroke-width="1"/>
  <circle cx="1230" cy="700" r="8" fill="#ffc100" stroke="#333" stroke-width="2"/>
  <circle cx="7" cy="994" r="11" fill="#ffec80" stroke="#333" stroke-width="1"/>
  <circle cx="7" cy="994" r="8" fill="#ffc100" stroke="#333" stroke-width="2"/>
  <circle cx="-32" cy="994" r="11" fill="#ffec80" stroke="#333" stroke-width="1"/>
  <circle cx="-32" cy="994" r="8" fill="#ffc100" stroke="#333" stroke-width="2"/>
  <circle cx="800" cy="980" r="11" fill="#ffec80" stroke="#333" stroke-width="1"/>
  <circle cx="800" cy="980" r="8" fill="#ffc100" stroke="#333" stroke-width="2"/>
  <circle cx="800" cy="1020" r="11" fill="#ffec80" stroke="#333" stroke-width="1"/>
  <circle cx="800" cy="1020" r="8" fill="#ffc100" stroke="#333" stroke-width="2"/>
  <circle cx="1357" cy="429" r="11" fill="#ffec80" stroke="#333" stroke-width="1"/>
  <circle cx="1357" cy="429" r="8" fill="#ffc100" stroke="#333" stroke-width="2"/>
  <circle cx="1397" cy="429" r="11" fill="#ffec80" stroke="#333" stroke-width="1"/>
  <circle cx="1397" cy="429" r="8" fill="#ffc100" stroke="#333" stroke-width="2"/>
  <line x1="614" y1="514" x2="500" y2="100" stroke="#ffc100" stroke-width="4"/>
</svg>